<?xml version="1.0" encoding="utf-8"?>
<!-- Generator: Adobe Illustrator 19.0.0, SVG Export Plug-In . SVG Version: 6.00 Build 0)  -->
<svg version="1.1" id="Warstwa_1" xmlns="http://www.w3.org/2000/svg" xmlns:xlink="http://www.w3.org/1999/xlink" x="0px" y="0px"
	 viewBox="-189 325 233 144" style="enable-background:new -189 325 233 144;" xml:space="preserve">
<style type="text/css">
	.st0{fill:#FFFFFF;}
	.st1{filter:url(#Adobe_OpacityMaskFilter);}
	.st2{mask:url(#mask-2);fill:#FFFFFF;}
	.st3{filter:url(#Adobe_OpacityMaskFilter_1_);}
	.st4{mask:url(#mask-4);fill:#FFFFFF;}
</style>
<title>LOgo Copy</title>
<desc>Created with Sketch.</desc>
<g id="Page-1_1_">
	<g id="FC-homepage-alternative" transform="translate(-842.000000, -218.000000)">
		<g id="LOgo-Copy" transform="translate(842.000000, 208.000000)">

				<g id="Page-1" transform="translate(118.000000, 81.500000) rotate(3.000000) translate(-118.000000, -81.500000) translate(4.000000, 6.000000)">
				<path id="Fill-1" class="st0" d="M-65,356.2c-1.2,2-2.3,3-3.3,3.1l-2,0.1l-0.5-4.8c0.1-1.1,0.8-1.8,2.2-2.1l2-0.1
					c1.3-0.1,1.9,0.5,1.8,1.8L-65,356.2z M-69.5,342.5l-7,0.5c-1.1,0.1-1.9,0.8-2.2,2.2l-4,40.2c-0.1,1.4,0.5,2,1.8,1.9l7-0.5
					c1.3-0.1,2.1-0.8,2.2-2.2l1.5-15.5l3.9,0.7l-1.4,14.5c-0.1,1.4,0.5,2,1.8,1.9l6-0.4l2.1-1.2c0.8-7.8-0.7-22.4-0.7-22.4
					s1.9-5.9,2.8-8.5C-55,345.6-59.6,341.8-69.5,342.5L-69.5,342.5z"/>
				<path id="Fill-3" class="st0" d="M-42.7,354.1l1.6-4.3l4.4-0.3c1.5-0.1,2.1,0.6,2,2l-2.2,20.4c-0.2,1.4-1,2.2-2.4,2.3l-4.4,0.3
					C-43.5,372.2-43.1,365.5-42.7,354.1 M-43.1,383.4l1.1-0.1c7.7-0.6,11.9-3.7,12.5-9.4l2.7-26.7c0.6-5.7-3-8.3-10.7-7.7l-1.1,0.1
					c-7.7,0.6-11.9,4-12.6,10.4l-2.5,24.5C-54.3,381-50.8,383.9-43.1,383.4"/>
				<path id="Fill-5" class="st0" d="M-24.8,383.4l5.4-0.4c1.4-0.1,2.2-0.9,2.4-2.4l1.5-14.5l1.1-0.1c1.6,10.9,3.5,16.3,5.9,16.1
					l4.3-0.3c1.4-0.1,2.2-0.9,2.4-2.4l4-40c0.1-1.3-0.5-2-1.9-2.1l-4.3,0.3c-1.2,0.1-2,0.9-2.4,2.4l-1.5,14.5l-1.1,0.1
					c-2-10.9-4-16.3-5.9-16.1l-5.4,0.4c-1.2,0.1-2,0.9-2.4,2.4l-4.1,40C-26.9,382.9-26.2,383.5-24.8,383.4"/>
				<g id="Group-9" transform="translate(176.000000, 0.000000)">
					<g id="Clip-8">
					</g>
					<defs>
						<filter id="Adobe_OpacityMaskFilter" filterUnits="userSpaceOnUse" x="-169.9" y="334.4" width="26" height="45.4">
							<feColorMatrix  type="matrix" values="1 0 0 0 0  0 1 0 0 0  0 0 1 0 0  0 0 0 1 0"/>
						</filter>
					</defs>
					<mask maskUnits="userSpaceOnUse" x="-169.9" y="334.4" width="26" height="45.4" id="mask-2">
						<g class="st1">
							<polygon id="path-1" class="st0" points="-171.7,334.4 -143.7,334.4 -143.7,379.4 -171.7,379.4 							"/>
						</g>
					</mask>
					<path id="Fill-7" class="st2" d="M-169.8,345.8l7.4-0.5l-3.3,32.2c-0.1,1.4,0.5,2.1,1.9,2l4.2-0.3c1.4-0.1,2.2-0.9,2.3-2.3
						l3.3-32.2l7.4-0.5c1.4-0.1,2.2-0.9,2.3-2.3l0.5-5.4c0.1-1.2-0.5-1.9-1.9-2l-23.2,1.7c-1.2,0.1-2,0.9-2.3,2.3l-0.5,5.4
						C-171.9,345.2-171.2,345.9-169.8,345.8"/>
				</g>
				<g id="Group-12" transform="translate(0.000000, 57.000000)">
					<g id="Clip-11">
					</g>
					<defs>
						<filter id="Adobe_OpacityMaskFilter_1_" filterUnits="userSpaceOnUse" x="-171" y="334.2" width="53" height="95.2">
							<feColorMatrix  type="matrix" values="1 0 0 0 0  0 1 0 0 0  0 0 1 0 0  0 0 0 1 0"/>
						</filter>
					</defs>
					<mask maskUnits="userSpaceOnUse" x="-171" y="334.2" width="53" height="95.2" id="mask-4">
						<g class="st3">
							<polygon id="path-3" class="st0" points="-117.7,428.4 -171.7,428.4 -171.7,334.4 -117.7,334.4 							"/>
						</g>
					</mask>
					<path id="Fill-10" class="st4" d="M-121.7,334.4L-144,336c-13.3,1-20.6,7.5-21.9,19.5l-5.8,56.4c-1.2,12,6.3,17.5,22.6,16.3
						l22.2-1.6c3-0.2,4.6-1.8,4.9-4.8l1.2-11.3c0.3-2.5-1.1-3.9-4-4.2l-17.8,1.3l-10.9-1.5l4.6-45.1l2.7-4.7
						c17.9-2.8,27-5.7,27.3-8.7l0.9-9C-117.5,336.1-118.8,334.7-121.7,334.4"/>
				</g>
				<path id="Fill-13" class="st0" d="M-97.6,459.1l7.3-72.2c0.3-2.6-1.1-4-4-4.3l-4.2,0.3l1.2-11.9l10.5-0.8
					c1.4-0.1,2.2-0.9,2.3-2.3l0.5-5.4c0.1-1.2-0.5-1.9-1.9-2l-10.5,0.8l0.7-6.4c8.4-1.3,12.7-2.7,12.9-4.1l0.5-5.4
					c0.1-1.2-0.5-1.9-1.9-2l-8.4,0.6c-5.4,0.4-9.1,2.4-11,6.1l-3.6,35.3c-0.5,0.7-1,1.6-1.2,2.8l-3.6,35.2l-1.2,9.1
					c-0.4,5.7-0.9,11.1-1.4,16.3l-2.3,23.1c4.3,8.9,10.6,13,18.8,12.4l27-2c3-0.2,4.7-1.9,5-4.9l1.2-11.6
					C-87,464.9-97.9,462.7-97.6,459.1"/>
				<path id="Fill-15" class="st0" d="M36.5,449.1c-0.3,2.9-2,4.5-5,4.7l-9.1,0.6l-1.1-10.8c1.8-2.9,2.8-5.2,3-6.7l6.9-0.5
					c4.3,2,6.4,4,6.1,6.1L36.5,449.1z M20.6,383.8l-25.7,1.9c-0.1,0-0.3,0.1-0.4,0.1c-0.4-0.1-0.8-0.2-1.3-0.3l-8.9,0.6
					c-2.5,0.2-4.1,1.8-4.9,4.8l-6.5,63.3c-0.3,3-1.9,4.6-4.9,4.8l-8.9,0.6l-1.1-11.2l4.4-42.9l3.8-16l-4.2-1.9l-11.1,0.8
					c-2.5,0.2-4.1,1.8-4.9,4.8l-6.5,63.3c-1.7,16.6,7.9,24.1,28.6,22.6c13.4-1,20.6-7.5,21.9-19.5l5.6-54.5c4.7-0.5,19.9-1.8,20.7-2
					c2.6-0.6,5.1-0.9,7.8-0.8c1.2,0,2.3,0.3,3.3,0.9l6.6-0.5c3-0.2,4.3,1.2,4,4.2l-0.5,4.5c-2.8,4.6-5.2,7-7.3,7.2l-2.2,0.2
					c-0.2,0-0.4,0-0.6-0.1c-1.5,0.8-3.3,1.2-5,1.2c1.8,0-1.3,0.3-1.7,0.3c-1,0.2-2,0.5-3.1,0.7c-2.5,0.6-9.8,0.4-12.4,0.2l-4.6,50.9
					c-0.3,3,1,4.4,4,4.2l22.2-1.6c16.2-1.2,25-7.7,26.2-19.7l2.5-24.7c0.3-2.5-1.1-3.9-4-4.2l4.5-22.7l0.2-2.3
					C57.5,387.8,45.7,382,20.6,383.8L20.6,383.8z"/>
			</g>
		</g>
	</g>
</g>
</svg>
