<?xml version="1.0" encoding="UTF-8"?>
<svg width="233px" height="144px" viewBox="0 0 233 144" version="1.1" xmlns="http://www.w3.org/2000/svg" xmlns:xlink="http://www.w3.org/1999/xlink">
    <!-- Generator: Sketch 44 (41411) - http://www.bohemiancoding.com/sketch -->
    <title>LOgo Copy</title>
    <desc>Created with Sketch.</desc>
    <defs>
        <polygon id="path-1" points="0 0 28 0 28 45 0 45 0 1.85345746e-14"></polygon>
        <polygon id="path-3" points="54 94 2.86120143e-14 94 0 0 54 0 54 94"></polygon>
    </defs>
    <g id="Page-1" stroke="none" stroke-width="1" fill="none" fill-rule="evenodd">
        <g id="FC-homepage-alternative" transform="translate(-842.000000, -218.000000)">
            <g id="LOgo-Copy" transform="translate(842.000000, 208.000000)">
                <g id="Page-1" transform="translate(118.000000, 81.500000) rotate(3.000000) translate(-118.000000, -81.500000) translate(4.000000, 6.000000)">
                    <path d="M106.772012,21.7516953 C105.524279,23.7603358 104.422531,24.7965934 103.458034,24.864809 L101.482249,25 L101,20.2087815 C101.114168,19.1229126 101.846587,18.4308339 103.202872,18.1461887 L105.188015,18.0097574 C106.51685,17.9148756 107.117634,18.5120725 106.981007,19.7970071 L106.772012,21.7516953 Z M102.211918,8.08801671 L95.2563353,8.59802342 C94.1283525,8.67972993 93.3869641,9.42497229 93.0452645,10.8185953 L89.0190704,51.0623421 C88.8825153,52.4520116 89.4792425,53.0905084 90.8117463,52.9896931 L97.7673286,52.4803453 C99.1004559,52.3841425 99.8374795,51.648784 99.9783994,50.2591145 L101.525401,34.7941822 L105.401945,35.5143855 L103.95471,49.9658936 C103.81379,51.3555631 104.404906,51.9947188 105.724315,51.8985159 L111.697823,51.4616497 L113.804139,50.2788822 C114.580446,42.521377 113.08021,27.8550599 113.08021,27.8550599 C113.08021,27.8550599 114.98824,21.9675793 115.905467,19.3707621 C116.729163,11.1217001 112.170466,7.36254204 102.211918,8.08801671 L102.211918,8.08801671 Z" id="Fill-1" fill="#D32974"></path>
                    <path d="M129.06799,19.6620779 L130.623397,15.3146276 L135.002941,15.0098297 C136.471755,14.9099708 137.127768,15.5711279 136.979509,16.9854688 L134.806137,37.418681 C134.653286,38.8330219 133.849014,39.5953432 132.379544,39.6945494 L128,40 C128.234853,37.7861355 128.5891,31.0094388 129.06799,19.6620779 M128.669876,48.9340416 L129.724427,48.8587745 C137.459478,48.304653 141.618608,45.1804201 142.204959,39.475694 L144.938119,12.7993517 C145.52447,7.09462565 141.943521,4.51997222 134.209098,5.07344485 L133.153918,5.14871193 C125.436463,5.70348227 121.25031,9.18263844 120.591058,15.597211 L118.077857,40.1381742 C117.417977,46.5579375 120.953049,49.4875142 128.669876,48.9340416" id="Fill-3" fill="#D32974"></path>
                    <path d="M146.965639,48.9893359 L152.387617,48.5987613 C153.835374,48.493022 154.628449,47.6973336 154.775689,46.2169831 L156.242404,31.7419306 L157.329959,31.6652696 C158.888936,42.6006982 160.857404,47.9821689 163.231574,47.812986 L167.547038,47.4997332 C168.991003,47.393333 169.783446,46.5983055 169.935742,45.117955 L173.9839,5.06918638 C174.112814,3.80560147 173.467611,3.11631326 172.047027,3 L167.731563,3.31391362 C166.505614,3.40114856 165.70306,4.19617609 165.339067,5.69569187 L163.877408,20.1608313 L162.789221,20.2374923 C160.755663,9.34105503 158.787195,3.95958436 156.887606,4.09440199 L151.465628,4.49026358 C150.243472,4.57683765 149.446605,5.37252606 149.073133,6.87666793 L145.020552,46.9260974 C144.87268,48.405787 145.522938,49.0957361 146.965639,48.9893359" id="Fill-5" fill="#D32974"></path>
                    <g id="Group-9" transform="translate(176.000000, 0.000000)">
                        <mask id="mask-2" fill="white">
                            <use xlink:href="#path-1"></use>
                        </mask>
                        <g id="Clip-8"></g>
                        <path d="M1.91506403,11.3332723 L9.30095333,10.8050514 L6.02078099,42.9971791 C5.87428297,44.4292446 6.49799985,45.0904989 7.8875304,44.9900717 L12.108308,44.6861816 C13.5160722,44.5857545 14.2963471,43.8195081 14.4434739,42.3880948 L17.7230174,10.1966192 L25.1089067,9.66774623 C26.5122697,9.56797118 27.2919158,8.79715998 27.4390426,7.3703115 L27.9847949,1.9935447 C28.108658,0.78515794 27.4755099,0.11933879 26.0947818,0 L2.9009391,1.66552606 C1.70883506,1.75095438 0.932961446,2.51654858 0.56640203,3.9629608 L0.0206497607,9.33972759 C-0.125848256,10.7672282 0.507299826,11.4330473 1.91506403,11.3332723" id="Fill-7" fill="#D32974" mask="url(#mask-2)"></path>
                    </g>
                    <g id="Group-12" transform="translate(0.000000, 57.000000)">
                        <mask id="mask-4" fill="white">
                            <use xlink:href="#path-3"></use>
                        </mask>
                        <g id="Clip-11"></g>
                        <path d="M50.0276864,0 L27.7769799,1.59376096 C14.4274439,2.55001754 7.13209904,9.05295578 5.89982442,21.1019198 L0.129760347,77.5249931 C-1.10251427,89.5739571 6.44207599,95.0137322 22.7590917,93.8449741 L44.9622323,92.2538367 C47.9290777,92.0413352 49.5697851,90.4265864 49.8773781,87.4141815 L51.0322788,76.1220899 C51.2929401,73.5766634 49.9610941,72.1790072 47.0424488,71.9199391 L29.291479,73.1923244 L18.393808,71.7336724 L23.0096055,26.6033466 L25.698666,21.9230674 C43.6215073,19.1454635 52.7357732,16.2491473 53.0440004,13.2373981 L53.9680478,4.20018321 C54.2268065,1.65934783 52.9139869,0.255788796 50.0276864,0" id="Fill-10" fill="#D32974" mask="url(#mask-4)"></path>
                    </g>
                    <path d="M74.1701465,124.692125 L81.4646265,52.5124031 C81.7286971,49.9041997 80.3895715,48.4779714 77.4447466,48.2245507 L73.280942,48.5264291 L74.481149,36.6385745 L84.9357152,35.8789672 C86.3330365,35.7787776 87.1045981,35.0145864 87.2504001,33.5903227 L87.7985656,28.1971107 C87.9174599,26.9974549 87.2873199,26.3380372 85.9087715,26.2136188 L75.4535795,26.9732261 L76.1112528,20.523767 C84.5477443,19.2003477 88.8485902,17.8147191 88.9900119,16.3767039 L89.533797,11.0018272 C89.6564459,9.78842002 89.026306,9.1198346 87.6521378,9 L79.2969952,9.60703103 C73.8829228,9.9986217 70.2078364,12.0384293 68.2717361,15.7362763 L64.7042804,51.0547428 C64.1842742,51.8012535 63.7431136,52.6774212 63.460896,53.8181419 L59.9040783,89.0095706 L58.7414169,98.1490873 C58.3259125,103.848107 57.8565927,109.272751 57.3365865,114.41909 L55,137.528179 C59.3052263,146.403143 65.5847242,150.542348 73.8447514,149.943175 L100.826255,147.987186 C103.851178,147.767817 105.518827,146.118945 105.829829,143.0445 L107,131.466381 C84.7586253,130.493953 73.8122119,128.236086 74.1701465,124.692125" id="Fill-13" fill="#D32974"></path>
                    <path d="M208.272173,114.674987 C207.955901,117.606169 206.273671,119.172913 203.228738,119.379684 L194.095239,120 L193,109.167453 C194.826049,106.230527 195.82107,103.998156 195.987015,102.464598 L202.84023,102 C207.158713,103.967523 209.207323,105.997589 208.98346,108.0819 L208.272173,114.674987 Z M192.323324,49.3170044 L166.577467,51.2148596 C166.430677,51.2253306 166.316156,51.2888106 166.175693,51.309098 C165.772652,51.1998077 165.387961,51.0767743 164.894442,51.0322729 L155.966816,51.6723082 C153.465056,51.8516228 151.833281,53.4621821 151.063265,56.5013683 L144.589313,119.814475 C144.281812,122.820285 142.65067,124.426263 139.690823,124.6383 L130.76383,125.277681 L129.699601,114.117637 L134.089387,71.1888049 L137.929341,55.2029735 L133.717349,53.2658522 L122.568256,54.0649147 C120.066496,54.2448838 118.435354,55.855443 117.664706,58.8946292 L111.191386,122.207082 C109.497604,138.769468 119.046558,146.304608 139.832552,144.815774 C153.182865,143.858993 160.47745,137.355239 161.709981,125.299277 L167.280415,70.8144693 C172.001111,70.3445865 187.147072,69.043574 188.01769,68.8328466 C190.648524,68.195429 193.141426,67.9775029 195.857677,67.9938637 C197.063634,68.0017169 198.158866,68.3426764 199.123125,68.9185773 L205.745766,68.4441135 C208.705613,68.2320772 210.029888,69.6260192 209.723021,72.6318293 L209.261771,77.142835 C206.470859,81.7834184 204.020349,84.1786427 201.916568,84.3291622 L199.695101,84.4881894 C199.449607,84.5058591 199.26865,84.4384525 199.045934,84.4266727 C197.52615,85.2276985 195.77922,85.6478444 194.053803,85.6367191 C195.808958,85.6478444 192.72763,85.9024188 192.349898,85.9809508 C191.324265,86.1923326 190.316348,86.4796286 189.297042,86.7204599 C186.79022,87.3120672 179.463999,87.1026487 176.888844,86.9259518 L172.252299,137.82185 C171.945432,140.827005 173.273503,142.221602 176.233983,142.009565 L198.386011,140.421911 C214.630368,139.25833 223.366914,132.683897 224.592485,120.695342 L227.122717,95.9518898 C227.382131,93.4113814 226.057856,92.016785 223.145463,91.7589385 L227.662424,69.1077084 L227.8921,66.8571138 C229.272054,53.3679438 217.415585,47.5192773 192.323324,49.3170044 L192.323324,49.3170044 Z" id="Fill-15" fill="#D42874"></path>
                </g>
            </g>
        </g>
    </g>
</svg>